<svg fill="none" height="24" viewBox="0 0 24 24" width="24" xmlns="http://www.w3.org/2000/svg" xmlns:xlink="http://www.w3.org/1999/xlink"><clipPath id="a"><path d="m1 4h22v16.0864h-22z"/></clipPath><g clip-path="url(#a)"><path d="m19.3029 5.36286c2.3823 3.50274 3.5589 7.45374 3.1191 12.00224-.0019.0193-.0119.0369-.0277.0485-1.8041 1.3248-3.5521 2.1287-5.2755 2.6619-.0134.0041-.0278.0038-.0411-.0007-.0133-.0044-.0248-.013-.033-.0244-.3982-.554-.7599-1.138-1.0769-1.7513-.0182-.0362-.0016-.0797.0359-.0939.5745-.2165 1.1209-.4759 1.6464-.7831.0414-.0243.044-.0836.0058-.1121-.1115-.0828-.222-.1698-.3277-.2568-.0198-.0161-.0464-.0193-.0689-.0085-3.4117 1.5755-7.1492 1.5755-10.60127 0-.02242-.01-.04905-.0066-.0683.0093-.10547.087-.21621.1732-.3267.256-.03823.0285-.03507.0878.00659.1121.52552.3014 1.07187.5666 1.64564.7842.03718.0142.05485.0566.03639.0928-.31009.6141-.67186 1.1981-1.0774 1.7521-.01767.0224-.04668.0327-.0741.0243-1.71525-.5332-3.46319-1.3371-5.2673-2.6619-.01503-.0116-.02584-.03-.02742-.0493-.36757-3.9344.38155-7.91807 3.11619-12.00223.00659-.01081.01661-.01925.02821-.02426 1.34557-.61754 2.78711-1.07186 4.29379-1.33133.02742-.00422.05484.00844.06908.0327.18616.3296.39895.75228.54292 1.0977 1.58818-.24258 3.20108-.24258 4.82248 0 .144-.33803.3494-.7681.5347-1.0977.0066-.01204.0169-.02168.0293-.02755s.0263-.00767.0398-.00515c1.5075.26026 2.949.71458 4.2935 1.33133.0119.00501.0217.01345.0275.02505zm-8.9399 7.48064c.0166-1.1631-.83137-2.1255-1.89585-2.1255-1.05578 0-1.89561.954-1.89561 2.1255 0 1.1713.85644 2.1253 1.89561 2.1253 1.05604 0 1.89585-.954 1.89585-2.1253zm7.0092 0c.0166-1.1631-.8314-2.1255-1.8956-2.1255-1.0561 0-1.8959.954-1.8959 2.1255 0 1.1713.8565 2.1253 1.8959 2.1253 1.0642 0 1.8956-.954 1.8956-2.1253z" fill="#fff"/></g></svg>