<svg fill="none" height="12" viewBox="0 0 12 12" width="12" xmlns="http://www.w3.org/2000/svg" xmlns:xlink="http://www.w3.org/1999/xlink"><mask id="a" fill="#fff"><path clip-rule="evenodd" d="m1 6.00002c.84158-2.06023 2.76359-3.50002 5.00001-3.50002 2.2364 0 4.15839 1.43977 4.99999 3.49998-.8416 2.06023-2.76359 3.50002-5 3.50002s-4.15841-1.43977-5-3.49998z" fill="#fff" fill-rule="evenodd"/></mask><path d="m1 6.00002-.694307-.28362-.115855.28362.115857.28362zm10-.00004.6943.28362.1159-.28362-.1159-.28362zm-9.30569.28365c.73953-1.81042 2.40736-3.03363 4.3057-3.03363v-1.5c-2.57449 0-4.75069 1.65636-5.694317 3.9664zm4.3057-3.03363c1.89833 0 3.56615 1.2232 4.30569 3.0336l1.3886-.56724c-.9436-2.31002-3.11981-3.96636-5.69429-3.96636zm4.30569 2.46636c-.73954 1.81042-2.40737 3.03364-4.3057 3.03364v1.5c2.57449 0 4.7507-1.65636 5.6943-3.9664zm-4.3057 3.03364c-1.89833 0-3.56615-1.2232-4.3057-3.0336l-1.388605.56724c.943635 2.31002 3.119825 3.96636 5.694305 3.96636z" fill="#8c8797" mask="url(#a)"/><circle cx="6" cy="6" r="1.1875" stroke="#8c8797" stroke-width=".625"/></svg>