<svg fill="none" height="24" viewBox="0 0 25 24" width="25" xmlns="http://www.w3.org/2000/svg"><g stroke-width="1.25"><path d="m20.6 15.3c.5951-1.1781.9034-2.4801.9-3.8v-.5c-.115-2.08432-.9948-4.05301-2.4709-5.52911s-3.4448-2.35587-5.5291-2.47086h-.5c-1.3199-.00344-2.6219.30493-3.8.9-1.41175.70557-2.59917 1.79025-3.42928 3.13255s-1.27011 2.88921-1.27072 4.46742c-.00344 1.3199.30493 2.6219.9 3.8l-1.9 5.7 5.7-1.9c.6043.3053 1.2412.5351 1.8964.686.6221.1434 1.2607.2157 1.9036.214 1.5782-.0006 3.1251-.4406 4.4674-1.2707 1.3424-.8301 2.427-2.0175 3.1326-3.4293z" fill="#f2bc3d" stroke="#f2bc3d" stroke-linecap="round"/><g stroke="#000"><path d="m8.5 8.5h9m-9 3h9"/><path d="m8.5 14.5h5"/></g></g></svg>